<svg width="141" height="44" viewBox="0 0 141 44" fill="none" xmlns="http://www.w3.org/2000/svg">
<path d="M0.719329 15.6359L1.04333 15.1319H3.52733L8.99933 31.3319H9.71933L15.1913 15.1319H17.6753L17.9993 15.6359L11.6993 33.8519H7.01933L0.719329 15.6359ZM21.2945 28.4519V20.5319C21.2945 16.9319 23.0945 15.1319 26.6945 15.1319H31.3745C34.9745 15.1319 36.7745 16.9319 36.7745 20.5319V25.6079H24.1745V28.8119C24.1745 30.4919 25.0145 31.3319 26.6945 31.3319H36.0545V32.7719L34.6145 33.8519H26.6945C23.0945 33.8519 21.2945 32.0519 21.2945 28.4519ZM24.1745 23.2679H33.8945V20.1719C33.8945 18.4919 33.0545 17.6519 31.3745 17.6519H26.6945C25.0145 17.6519 24.1745 18.4919 24.1745 20.1719V23.2679ZM42.1103 33.8519V17.2919C42.9503 15.8519 44.5103 15.1319 46.7903 15.1319H50.3903L51.8303 16.2119V17.6519H47.1863C46.1783 17.6519 45.4463 17.9279 44.9903 18.4799V33.8519H42.1103ZM55.5049 28.4519V9.01193H58.3849V15.1319H65.2249V17.6519H58.3849V28.8119C58.3849 30.4919 59.2249 31.3319 60.9049 31.3319H65.5849V32.7719L64.1449 33.8519H60.9049C57.3049 33.8519 55.5049 32.0519 55.5049 28.4519ZM69.4585 28.4519V20.5319C69.4585 16.9319 71.2585 15.1319 74.8585 15.1319H79.5385C83.1385 15.1319 84.9385 16.9319 84.9385 20.5319V25.6079H72.3385V28.8119C72.3385 30.4919 73.1785 31.3319 74.8585 31.3319H84.2185V32.7719L82.7785 33.8519H74.8585C71.2585 33.8519 69.4585 32.0519 69.4585 28.4519ZM72.3385 23.2679H82.0585V20.1719C82.0585 18.4919 81.2185 17.6519 79.5385 17.6519H74.8585C73.1785 17.6519 72.3385 18.4919 72.3385 20.1719V23.2679ZM88.6184 33.3119L95.2424 24.3119L88.8704 15.6719L89.1224 15.1319H91.7864L96.8984 22.2239L102.01 15.1319H104.674L104.926 15.6719L98.5904 24.3119L105.178 33.3119L104.926 33.8519H102.262L96.8984 26.3999L91.5344 33.8519H88.8704L88.6184 33.3119Z" fill="#00A5C9"/>
<path d="M110.015 15.0892L110.028 23.2429L119.14 14.1685L128.281 23.2135L128.268 15.0598L119.127 6.01479L110.015 15.0892Z" fill="#FFA800"/>
<path d="M110.076 25.4076L110.089 33.5613L119.201 24.4869L128.342 33.5319L128.329 25.3782L119.188 16.3332L110.076 25.4076Z" fill="#FFA800"/>
</svg>
