<svg width="242" height="66" viewBox="0 0 242 66" fill="none" xmlns="http://www.w3.org/2000/svg">
<path d="M1.28 26.616L1.856 25.72H6.272L16 54.52H17.28L27.008 25.72H31.424L32 26.616L20.8 59H12.48L1.28 26.616ZM37.858 49.4V35.32C37.858 28.92 41.058 25.72 47.458 25.72H55.778C62.178 25.72 65.378 28.92 65.378 35.32V44.344H42.978V50.04C42.978 53.0267 44.4713 54.52 47.458 54.52H64.098V57.08L61.538 59H47.458C41.058 59 37.858 55.8 37.858 49.4ZM42.978 40.184H60.258V34.68C60.258 31.6933 58.7647 30.2 55.778 30.2H47.458C44.4713 30.2 42.978 31.6933 42.978 34.68V40.184ZM74.864 59V29.56C76.3573 27 79.1307 25.72 83.184 25.72H89.584L92.144 27.64V30.2H83.888C82.096 30.2 80.7947 30.6907 79.984 31.672V59H74.864ZM98.6765 49.4V14.84H103.797V25.72H115.957V30.2H103.797V50.04C103.797 53.0267 105.29 54.52 108.277 54.52H116.597V57.08L114.037 59H108.277C101.877 59 98.6765 55.8 98.6765 49.4ZM123.483 49.4V35.32C123.483 28.92 126.683 25.72 133.083 25.72H141.403C147.803 25.72 151.003 28.92 151.003 35.32V44.344H128.603V50.04C128.603 53.0267 130.096 54.52 133.083 54.52H149.723V57.08L147.163 59H133.083C126.683 59 123.483 55.8 123.483 49.4ZM128.603 40.184H145.883V34.68C145.883 31.6933 144.39 30.2 141.403 30.2H133.083C130.096 30.2 128.603 31.6933 128.603 34.68V40.184ZM157.545 58.04L169.321 42.04L157.993 26.68L158.441 25.72H163.177L172.265 38.328L181.353 25.72H186.089L186.537 26.68L175.273 42.04L186.985 58.04L186.537 59H181.801L172.265 45.752L162.729 59H157.993L157.545 58.04Z" fill="#00A5C9"/>
<path d="M195.024 28.0535L195.045 41.5431L214.854 26.5222L234.711 41.4782L234.689 27.9886L214.833 13.0326L195.024 28.0535Z" fill="#FFA800"/>
<path d="M195.148 45.1243L195.169 58.6139L214.978 43.593L234.835 58.549L234.813 45.0594L214.957 30.1034L195.148 45.1243Z" fill="#FFA800"/>
</svg>
